<svg enable-background="new 0 0 503 188" viewBox="0 0 503 188" xmlns="http://www.w3.org/2000/svg"><g enable-background="new" fill="#183647"><path d="m197.8 116.8c1 .4 1.8 1 2.5 1.7s1.3 1.6 1.7 2.5c.4 1 .6 2 .6 3.1v3.8c0 .6-.3 1-.8 1.1l-5.8.9c-.6.2-.8 0-.8-.6v-4.9c0-.4-.1-.8-.4-1.1s-.7-.4-1.1-.4h-.5c-.4 0-.8.1-1.1.4s-.4.7-.4 1.1v22.4c0 .4.1.8.4 1.1s.7.4 1.1.4h.5c.4 0 .8-.1 1.1-.4s.4-.7.4-1.1v-7.6c0-.6.3-.8.8-.6l5.8.8c.5.2.8.6.8 1.1v6.7c0 1.1-.2 2.1-.6 3.1s-1 1.8-1.7 2.5-1.6 1.3-2.5 1.7c-1 .4-2 .6-3.1.6h-2.4c-1.1 0-2.1-.2-3.1-.6s-1.8-1-2.5-1.7-1.3-1.6-1.7-2.5c-.4-1-.6-2-.6-3.1v-23c0-1.1.2-2.1.6-3.1s1-1.8 1.7-2.5 1.6-1.3 2.5-1.7c1-.4 2-.6 3.1-.6h2.4c1.1-.2 2.1 0 3.1.5z"/><path d="m214.9 153.8c0 .6-.3.9-1 .9h-5.7c-.6 0-.8-.3-.8-.9v-36.3c0-.6.3-.9.9-.9h9.5c1.1 0 2.1.2 3.1.6s1.8 1 2.5 1.7 1.3 1.6 1.7 2.5c.4 1 .6 2 .6 3.1v7.8c0 1.6-.5 3-1.4 4.2s-2.1 2.2-3.4 2.9l6 14.3c.1.6-.1.9-.6.9h-5.8c-.3 0-.5-.1-.7-.3s-.4-.4-.5-.6l-4.6-11.8v11.9zm0-20.2h2c.4 0 .8-.1 1.1-.4s.4-.7.4-1.1v-7.2c0-.4-.1-.8-.4-1.1s-.7-.4-1.1-.4h-2z"/><path d="m238.8 153.8c0 .6-.3.9-.9.9h-5.7c-.6 0-.9-.3-.9-.9v-36.3c0-.6.3-.9.9-.9h5.7c.6 0 .9.3.9.9z"/><path d="m257.1 116.8c1 .4 1.8 1 2.5 1.7s1.3 1.6 1.7 2.5c.4 1 .6 2 .6 3.1v2.4c0 .6-.3 1-.8 1.1l-5.8 1.5c-.6.2-.8 0-.8-.6v-4.1c0-.4-.1-.8-.4-1.1s-.7-.4-1.1-.4h-.5c-.4 0-.8.1-1.1.4s-.4.7-.4 1.1v3.9c0 .5.1.9.3 1.2.1.3.4.7.7 1l8.3 6.2c.7.6 1.1 1.2 1.3 1.8s.3 1.3.4 2.1v6.5c0 1.1-.2 2.1-.6 3.1s-1 1.8-1.7 2.5-1.6 1.3-2.5 1.7c-1 .4-2 .6-3.1.6h-2.4c-1.1 0-2.1-.2-3.1-.6s-1.8-1-2.5-1.7-1.3-1.6-1.7-2.5c-.4-1-.6-2-.6-3.1v-3.6c0-.6.3-1 .8-1.1l5.8-1.5c.6-.2.8 0 .8.6v5.3c0 .4.1.8.4 1.1s.7.4 1.1.4h.5c.4 0 .8-.1 1.1-.4s.4-.7.4-1.1v-3.9c0-.5-.1-1-.3-1.5-.1-.4-.4-.8-.8-1.1l-8.2-6.3c-.6-.6-1.1-1.2-1.4-1.8s-.4-1.4-.4-2.4v-5.7c0-1.1.2-2.1.6-3.1s1-1.8 1.7-2.5 1.6-1.3 2.5-1.7c1-.4 2-.6 3.1-.6h2.4c1.2-.1 2.2.1 3.2.6z"/><path d="m274.2 153.8c0 .6-.3.9-.9.9h-5.7c-.6 0-.9-.3-.9-.9v-36.3c0-.6.3-.9.9-.9h5.7c.6 0 .9.3.9.9z"/><path d="m292.5 116.8c1 .4 1.8 1 2.5 1.7s1.3 1.6 1.7 2.5c.4 1 .6 2 .6 3.1v2.4c0 .6-.3 1-.8 1.1l-5.8 1.5c-.6.2-.8 0-.8-.6v-4.1c0-.4-.1-.8-.4-1.1s-.7-.4-1.1-.4h-.5c-.4 0-.8.1-1.1.4s-.4.7-.4 1.1v3.9c0 .5.1.9.3 1.2.1.3.4.7.7 1l8.3 6.2c.7.6 1.1 1.2 1.3 1.8s.3 1.3.4 2.1v6.5c0 1.1-.2 2.1-.6 3.1s-1 1.8-1.7 2.5-1.6 1.3-2.5 1.7c-1 .4-2 .6-3.1.6h-2.5c-1.1 0-2.1-.2-3.1-.6s-1.8-1-2.5-1.7-1.3-1.6-1.7-2.5c-.4-1-.6-2-.6-3.1v-3.6c0-.6.3-1 .8-1.1l5.8-1.5c.5-.2.8 0 .8.6v5.3c0 .4.1.8.4 1.1s.7.4 1.1.4h.5c.4 0 .8-.1 1.1-.4s.4-.7.4-1.1v-3.9c0-.5-.1-1-.3-1.5-.1-.4-.4-.8-.8-1.1l-8.2-6.3c-.6-.6-1.1-1.2-1.4-1.8s-.4-1.4-.4-2.4v-5.7c0-1.1.2-2.1.6-3.1s1-1.8 1.7-2.5 1.6-1.3 2.5-1.7c1-.4 2-.6 3.1-.6h2.4c1.3-.1 2.3.1 3.3.6z"/><path d="m323.1 116.8c1 .4 1.8 1 2.5 1.7s1.3 1.6 1.7 2.5c.4 1 .6 2 .6 3.1v2.4c0 .6-.3 1-.8 1.1l-5.8 1.5c-.6.2-.8 0-.8-.6v-4.1c0-.4-.1-.8-.4-1.1s-.7-.4-1.1-.4h-.5c-.4 0-.8.1-1.1.4s-.4.7-.4 1.1v3.9c0 .5.1.9.3 1.2.1.3.4.7.7 1l8.3 6.2c.7.6 1.1 1.2 1.3 1.8s.3 1.3.4 2.1v6.5c0 1.1-.2 2.1-.6 3.1s-1 1.8-1.7 2.5-1.6 1.3-2.5 1.7c-1 .4-2 .6-3.1.6h-2.4c-1.1 0-2.1-.2-3.1-.6s-1.8-1-2.5-1.7-1.3-1.6-1.7-2.5c-.4-1-.6-2-.6-3.1v-3.6c0-.6.3-1 .8-1.1l5.8-1.5c.5-.2.8 0 .8.6v5.3c0 .4.1.8.4 1.1s.7.4 1.1.4h.5c.4 0 .8-.1 1.1-.4s.4-.7.4-1.1v-3.9c0-.5-.1-1-.3-1.5-.1-.4-.4-.8-.8-1.1l-8.2-6.3c-.6-.6-1.1-1.2-1.4-1.8s-.4-1.4-.4-2.4v-5.7c0-1.1.2-2.1.6-3.1s1-1.8 1.7-2.5 1.6-1.3 2.5-1.7c1-.4 2-.6 3.1-.6h2.4c1.2-.1 2.2.1 3.2.6z"/><path d="m348.3 148.2v5.7c0 .6-.3.9-.9.9h-13.8c-.6 0-.9-.3-.9-.9v-36.3c0-.6.3-.9.9-.9h13.8c.6 0 .9.3.9.9v5.7c0 .6-.3.9-.9.9h-7.2v7.2h6.3c.6 0 .9.3.9.9v5.7c0 .6-.3.9-.9.9h-6.3v8.6h7.2c.6-.2.9.1.9.7z"/><path d="m361.2 153.8c0 .6-.3.9-1 .9h-5.7c-.6 0-.8-.3-.8-.9v-36.3c0-.6.3-.9.9-.9h9.5c1.1 0 2.1.2 3.1.6s1.8 1 2.5 1.7 1.3 1.6 1.7 2.5c.4 1 .6 2 .6 3.1v7.8c0 1.6-.5 3-1.4 4.2s-2.1 2.2-3.4 2.9l6 14.3c.1.6-.1.9-.6.9h-5.6c-.3 0-.5-.1-.7-.3s-.4-.4-.5-.6l-4.6-11.8zm0-20.2h2c.4 0 .8-.1 1.1-.4s.4-.7.4-1.1v-7.2c0-.4-.1-.8-.4-1.1s-.7-.4-1.1-.4h-2z"/><path d="m398.1 117.5-7.5 36.3c-.1.6-.4.9-1 .9h-5.6c-.6 0-.9-.3-1-.9l-7.5-36.3c-.1-.6.2-.9.8-.9h6.9c.5 0 .9.3 1 .9l2.6 23.8h.3l2.6-23.8c.1-.6.4-.9 1-.9h6.9c.3 0 .6.3.5.9z"/><path d="m409.1 153.8c0 .6-.3.9-.9.9h-5.7c-.6 0-.9-.3-.9-.9v-36.3c0-.6.3-.9.9-.9h5.7c.6 0 .9.3.9.9z"/><path d="m427.7 116.8c1 .4 1.8 1 2.5 1.7s1.3 1.6 1.7 2.5c.4 1 .6 2 .6 3.1v3.8c0 .6-.3 1-.8 1.1l-5.7 1c-.6.2-.8 0-.8-.6v-4.9c0-.4-.1-.8-.4-1.1s-.7-.4-1.1-.4h-.5c-.4 0-.8.1-1.1.4s-.4.7-.4 1.1v22.4c0 .4.1.8.4 1.1s.7.4 1.1.4h.5c.4 0 .8-.1 1.1-.4s.4-.7.4-1.1v-7.6c0-.6.3-.8.8-.6l5.8.8c.5.2.8.6.8 1.1v6.7c0 1.1-.2 2.1-.6 3.1s-1 1.8-1.7 2.5-1.6 1.3-2.5 1.7-2 .6-3.1.6h-2.4c-1.1 0-2.1-.2-3.1-.6s-1.8-1-2.5-1.7-1.3-1.6-1.7-2.5c-.4-1-.6-2-.6-3.1v-23c0-1.1.2-2.1.6-3.1s1-1.8 1.7-2.5 1.6-1.3 2.5-1.7c1-.4 2-.6 3.1-.6h2.4c1-.3 2-.1 3 .4z"/></g><path d="m452.9 148.2v5.7c0 .6-.3.9-.9.9h-13.8c-.6 0-.9-.3-.9-.9v-36.3c0-.6.3-.9.9-.9h13.8c.6 0 .9.3.9.9v5.7c0 .6-.3.9-.9.9h-7.2v7.2h6.3c.6 0 .9.3.9.9v5.7c0 .6-.3.9-.9.9h-6.3v8.6h7.2c.6-.2.9.1.9.7z" fill="#183647"/><path d="m470.3 116.8c1 .4 1.8 1 2.5 1.7s1.3 1.6 1.7 2.5c.4 1 .6 2 .6 3.1v2.4c0 .6-.3 1-.8 1.1l-5.8 1.5c-.6.2-.8 0-.8-.6v-4.1c0-.4-.1-.8-.4-1.1s-.7-.4-1.1-.4h-.5c-.4 0-.8.1-1.1.4s-.4.7-.4 1.1v3.9c0 .5.1.9.3 1.2.1.3.4.7.7 1l8.3 6.2c.7.6 1.1 1.2 1.3 1.8s.3 1.3.4 2.1v6.5c0 1.1-.2 2.1-.6 3.1s-1 1.8-1.7 2.5-1.6 1.3-2.5 1.7c-1 .4-2 .6-3.1.6h-2.4c-1.1 0-2.1-.2-3.1-.6s-1.8-1-2.5-1.7-1.3-1.6-1.7-2.5c-.4-1-.6-2-.6-3.1v-3.6c0-.6.3-1 .8-1.1l5.8-1.5c.6-.2.8 0 .8.6v5.3c0 .4.1.8.4 1.1s.7.4 1.1.4h.5c.4 0 .8-.1 1.1-.4s.4-.7.4-1.1v-3.9c0-.5-.1-1-.3-1.5-.1-.4-.4-.8-.8-1.1l-8.2-6.3c-.6-.6-1.1-1.2-1.4-1.8s-.4-1.4-.4-2.4v-5.7c0-1.1.2-2.1.6-3.1s1-1.8 1.7-2.5 1.6-1.3 2.5-1.7c1-.4 2-.6 3.1-.6h2.4c1.1-.1 2.2.1 3.2.6z" fill="#183647"/><path d="m205.6 34.2c3 1.3 5.4 3.7 6.6 6.7.7 1.5 1 3.2 1 4.9v13.6c.1.8-.5 1.6-1.3 1.8l-9 1.4c-.9.3-1.3-.1-1.3-1v-15.4c0-1.3-1.1-2.4-2.4-2.4h-.8c-1.3 0-2.4 1.1-2.4 2.4v44.9c0 1.3 1.1 2.4 2.4 2.4h.8c1.3 0 2.4-1.1 2.4-2.4v-20.7c0-.9.4-1.3 1.3-1l9 1.2c.8.2 1.4 1 1.3 1.8v19.2c0 1.7-.3 3.3-1 4.9-1.3 3-3.7 5.4-6.6 6.7-1.5.7-3.2 1-4.9 1h-3.7c-1.7 0-3.3-.3-4.9-1-3-1.3-5.4-3.7-6.6-6.7-.7-1.5-1-3.2-1-4.9v-45.9c0-1.7.3-3.3 1-4.9 1.3-3 3.7-5.4 6.6-6.7 1.5-.7 3.2-1 4.9-1h3.8c1.6.1 3.3.4 4.8 1.1z" fill="#357d93"/><path d="m250.5 91.6c0 1.7-.3 3.3-1 4.9-1.3 3-3.7 5.4-6.6 6.7-1.5.7-3.2 1-4.9 1h-3.8c-1.7 0-3.3-.3-4.9-1-3-1.3-5.4-3.7-6.6-6.7-.7-1.5-1-3.2-1-4.9v-45.9c0-1.7.3-3.3 1-4.9 1.3-3 3.7-5.4 6.6-6.7 1.5-.7 3.2-1 4.9-1h3.8c1.7 0 3.3.3 4.9 1 3 1.3 5.4 3.7 6.6 6.7.7 1.5 1 3.2 1 4.9zm-11.6-45.4c0-1.3-1.1-2.4-2.4-2.4h-.8c-1.3 0-2.4 1.1-2.4 2.4v44.9c0 1.3 1.1 2.4 2.4 2.4h.8c1.3 0 2.4-1.1 2.4-2.4z" fill="#357d93"/><path d="m286.3 93.2v8.8c.1.7-.4 1.3-1 1.4-.1 0-.2 0-.3 0h-22.5c-.7.1-1.3-.4-1.3-1.1 0-.1 0-.2 0-.3v-66.7c-.1-.7.4-1.3 1-1.4h.3 8.8c.7-.1 1.3.4 1.4 1v.3 56.5h12.3c.7-.1 1.3.4 1.3 1.1z" fill="#357d93"/><path d="m321.5 91.6c0 1.7-.3 3.3-1 4.9-1.3 3-3.7 5.4-6.6 6.7-1.5.7-3.2 1-4.9 1h-3.8c-1.7 0-3.3-.3-4.9-1-3-1.3-5.4-3.7-6.6-6.7-.7-1.5-1-3.2-1-4.9v-45.9c0-1.7.3-3.3 1-4.9 1.3-3 3.7-5.4 6.6-6.7 1.5-.7 3.2-1 4.9-1h3.8c1.7 0 3.3.3 4.9 1 3 1.3 5.4 3.7 6.6 6.7.7 1.5 1 3.2 1 4.9zm-11.6-45.4c0-1.3-1.1-2.4-2.4-2.4h-.8c-1.3 0-2.4 1.1-2.4 2.4v44.9c0 1.3 1.1 2.4 2.4 2.4h.8c1.3 0 2.4-1.1 2.4-2.4z" fill="#357d93"/><path d="m362.2 102c.2.9-.1 1.4-1 1.4h-9c-.4 0-.8-.1-1.1-.4-.4-.2-.6-.6-.8-1l-7.2-24.3v25.7l-.1-1c-.1.6-.7 1.1-1.3 1h-8.8c-.7.1-1.3-.4-1.4-1 0-.1 0-.2 0-.3v-66.8c-.1-.7.4-1.3 1-1.4h.3 14.9c1.7 0 3.3.3 4.9 1 3 1.3 5.4 3.7 6.6 6.7.7 1.5 1 3.2 1 4.9v16.2c0 2.3-.6 4.6-1.9 6.6-1.2 1.9-3 3.5-5 4.5zm-19.1-37.5h3.2c1.3 0 2.4-1.1 2.4-2.4v-15.2c0-1.3-1.1-2.4-2.4-2.4h-3.2z" fill="#357d93"/><path d="m399.6 102c.2.6-.1 1.2-.7 1.3-.2.1-.4.1-.5 0h-9c-.8 0-1.4-.5-1.5-1.3v-.1l-.8-10.7h-6.1l-.8 10.7c0 .8-.6 1.4-1.4 1.4h-.1-9c-.6.1-1.1-.3-1.2-.9 0-.2 0-.4 0-.5l7.5-66.7c0-.8.7-1.4 1.5-1.4h.1 13.1c.8-.1 1.5.5 1.6 1.3v.1zm-13.3-21.8-1.9-26.9h-.8l-1.9 26.9z" fill="#357d93"/><path d="m424.4 33.9c1.7 0 3.3.3 4.9 1 3 1.3 5.4 3.7 6.6 6.7.7 1.5 1 3.2 1 4.9v44.5c0 1.7-.3 3.3-1 4.9-1.3 3-3.7 5.4-6.6 6.7-1.5.7-3.2 1-4.9 1h-14.9c-.7.1-1.3-.4-1.4-1 0-.1 0-.2 0-.3v-67c-.1-.7.4-1.3 1-1.4h.3zm.9 13c0-1.3-1.1-2.4-2.4-2.4h-3.2v48.3h3.2c1.3 0 2.4-1.1 2.4-2.4z" fill="#357d93"/><path d="m474.7 91.6c0 1.7-.3 3.3-1 4.9-1.3 3-3.7 5.4-6.6 6.7-1.5.7-3.2 1-4.9 1h-3.8c-1.7 0-3.3-.3-4.9-1-3-1.3-5.4-3.7-6.6-6.7-.7-1.5-1-3.2-1-4.9v-45.9c0-1.7.3-3.3 1-4.9 1.3-3 3.7-5.4 6.6-6.7 1.5-.7 3.2-1 4.9-1h3.8c1.7 0 3.3.3 4.9 1 3 1.3 5.4 3.7 6.6 6.7.7 1.5 1 3.2 1 4.9zm-11.6-45.4c0-1.3-1.1-2.4-2.4-2.4h-.8c-1.3 0-2.4 1.1-2.4 2.4v44.9c0 1.3 1.1 2.4 2.4 2.4h.8c1.3 0 2.4-1.1 2.4-2.4z" fill="#357d93"/><path d="m54.7 53.1 6.7-21.1 19.4 7.1-7.2 15.7-7.6 4.1z" fill="#fff"/><path d="m107.4 39.7 17.3-6 5.4 11.8v7l-12.4 6.4z" fill="#fff"/><path d="m93.4 27.3-17.8 20.5-6.2 14.4 4.2 9.3 15.9 19h8.1l13-19 2.3-18.4-9-17.4z" fill="#f4e495"/><path d="m75.6 90.5-17.1-11.2-19.9-1.4-11.7 6.3v7.8l10 10.8 19.1 5.3 16.4-3.7 3.2-4z" fill="#f4e495"/><path d="m112 102.8 22.8 3.3 18.7-8 11.4-9.9-5.7-6.9-18.4-3.4-13.3 4.7-10.9 5.6-6 7.5z" fill="#f4e495"/><path d="m58.9 137.6-.4-11 5.6-9.5h9.5l7.2-1.3v9.4l-5.2 10.4-6.2 2z" fill="#f4e495"/><path d="m103.3 117.5 4.1 13.2 5.5 5.5 11.8 3.1 3.6-3.4v-9.3l-5.9-9.1-9.5-1.7-9.6-2.3v2.3z" fill="#f4e495"/><g fill="#183647"><path d="m127.5 153.7c0-.8-.6-1.5-1.4-1.5-6.7-.2-15.4-1.8-21.4-7.7-10.2-10.1-7.8-33.9-7.7-34.6l.4-2.7v-.7c0-2-1.6-3.6-3.5-3.6-2 0-3.6 1.6-3.6 3.6v.7l.4 2.7c.1.8 2.6 24.5-7.7 34.6-6 5.9-14.7 7.5-21.4 7.7-.8 0-1.5.7-1.5 1.5v3.4c0 .8.7 1.5 1.5 1.5h64.4c.8 0 1.5-.7 1.5-1.5z"/><path d="m172.2 82.3c-6.2-3.9-13-6.8-20.1-8.5 2.6-7.4 3.9-15.3 3.7-23.2 0-.4-.3-.8-.7-.9-4.5-.9-9.2-1.4-13.8-1.4-2.1 0-4.3.1-6.4.3-1.2-7.1-3.5-14.1-6.7-20.6-.2-.4-.6-.6-1-.5-6.5 1.6-12.7 4-18.6 7.2-4.2-5.7-9.1-10.8-14.6-15.1-.3-.3-.8-.3-1.1 0-5.5 4.4-10.4 9.5-14.6 15.2-5.8-3.2-12.1-5.6-18.5-7.2-.4-.1-.8.1-1 .5-3.2 6.5-5.5 13.4-6.7 20.6-2.1-.2-4.2-.3-6.3-.3-4.6 0-9.2.5-13.8 1.4-.4.1-.7.5-.7.9-.2 7.9 1.1 15.7 3.7 23.2-6.9 1.7-13.4 4.4-19.5 8.1-.4.3-.6.8-.3 1.2 1.8 3.4 9.7 17.4 22.9 24.3-4.3 5.2-7.6 11-9.9 17.3-.2.4 0 .9.4 1.1 2.7 1.5 13.2 6.6 24.4 6.6h.9c-.3 3.2-.4 6.3 0 9.5 0 .4.4.8.8.8 1.7.2 3.4.3 5.1.3 5.8 0 14.6-1 20.3-6.6 6.2-6.1 7-16.1 6.9-21.8-.1-2.5-2.1-4.6-4.6-4.7h-1.6c-5.8 0-14.6 1-20.3 6.6-1.9 1.9-3.4 4.1-4.4 6.6-1.1.1-2.1.2-3.2.2-4.2-.1-8.3-.8-12.2-2.2-.5-.2-.7-.7-.6-1.2 0-.1 0-.1.1-.2 1.9-3.4 4.2-6.5 7-9.2 2.3.5 4.7.7 7.1.7 11 0 21.2-4.5 26.7-7.4 2.3-1.2 3.2-4.1 2-6.4-.1-.1-.1-.2-.2-.3-4.2-6.7-13.8-19.6-27.9-23.5-3-.8-6.2-1.2-9.4-1.2h-1.5c-1.3-3.1-2.3-6.4-2.9-9.8-.3-1.5-.5-2.8-.6-4.1 0-.5.3-1 .9-1 1.3-.1 2.8-.2 4.2-.2 5.9 0 14 1 19.5 5.5 2.5 2.2 4.5 4.9 5.8 7.9 4.2 12.4 14.3 22.3 19.4 26.8 1.8 1.6 4.5 1.6 6.2 0 5-4.4 14.8-14 19.1-26.1 1.3-3.3 3.4-6.3 6.1-8.6 5.4-4.5 13.6-5.5 19.5-5.5 1.5 0 2.9.1 4.2.2.5 0 .9.5.9 1-.1 1.3-.3 2.7-.6 4.1-.6 3.4-1.6 6.7-2.9 9.8h-1.5c-3.2 0-6.3.4-9.3 1.2-14.1 3.9-23.7 16.8-27.9 23.6-1.4 2.2-.7 5.2 1.5 6.5.1.1.2.1.3.2 5.5 2.9 15.7 7.4 26.7 7.4 2.4 0 4.7-.2 7.1-.7 2.3 2.3 4.3 4.8 6 7.6.6.9 1.1 1.8 1.5 2.6-4.2 1.6-8.7 2.4-13.2 2.6-1.1 0-2.1-.1-3.2-.2-1-2.5-2.5-4.7-4.4-6.6-5.7-5.6-14.5-6.6-20.3-6.6h-1.6c-2.5.1-4.5 2.1-4.6 4.7-.1 5.7.7 15.7 6.9 21.8 5.7 5.6 14.5 6.6 20.3 6.6 1.7 0 3.4-.1 5.1-.3.4 0 .8-.4.8-.8.3-3.2.3-6.4-.1-9.5h.9c11.2 0 21.7-5.2 24.4-6.6.4-.2.6-.7.4-1.1-2.3-6.3-5.7-12.2-9.9-17.3 15.3-8.1 23.5-25.3 23.5-25.3zm-105.4 40.8c2.2-2.1 6.1-3.5 10.9-3.9-.4 3.9-1.4 8.3-4.1 10.9-1.8 1.8-4.8 3-8.5 3.6-1 .2-1.9-.5-2.1-1.5 0-.2 0-.4 0-.6.6-3.2 1.7-6.5 3.8-8.5zm-21.3-41.6c2.4 0 4.7.3 7 .9 7.9 2.2 14.2 8.3 18.5 13.8.6.8.5 1.9-.3 2.6-.1.1-.3.2-.5.3-5.1 2.1-10.5 3.2-16 3.4-2.4 0-4.7-.3-7-.9-7.9-2.2-14.3-8.4-18.5-13.8-.6-.8-.5-1.9.3-2.6.1-.1.3-.2.5-.3 5.1-2.1 10.6-3.2 16-3.4zm15.4-31c.5-3.8 1.5-7.4 2.8-11 .2-.6.9-1 1.6-.7 2.8 1.1 5.6 2.3 8.3 3.8-2 3.8-3.4 8-4.1 12.2-2.7-1.9-5.6-3.3-8.6-4.3zm32.6 37.7c-4-3.9-9.3-9.9-12.6-16.8-.5-1.4-1-2.8-1.6-4.1-.8-2.5-1.2-5-1.2-7.6 0-10.2 7.5-20.5 14-27.1.8-.8 2-.8 2.8 0 6.1 6.2 14 16.3 14 27.1 0 3-.6 5.9-1.7 8.7-.2.6-.5 1.2-.7 1.8-3.1 7.1-8.5 13.6-13 18zm24-33.4c-.7-4.3-2.1-8.4-4.1-12.2 2.7-1.5 5.4-2.7 8.2-3.8.6-.2 1.3.1 1.6.7 1.3 3.6 2.2 7.3 2.8 11.1-3 .9-5.9 2.4-8.5 4.2zm-4.3 75.2c-2.6-2.6-3.7-6.9-4.1-10.9 4.9.4 8.8 1.8 10.9 3.9s3.2 5.3 3.7 8.5c.2 1-.5 1.9-1.5 2.1-.2 0-.4 0-.6 0-3.6-.5-6.6-1.8-8.4-3.6zm26.4-28.6c-2.3.6-4.6.9-7 .9-5.5-.1-10.8-1.3-15.9-3.3-.9-.4-1.4-1.4-1-2.4.1-.2.2-.3.3-.5 4.2-5.4 10.6-11.6 18.5-13.8 2.3-.6 4.6-.9 7-.9 5.5.1 10.9 1.3 15.9 3.3.9.4 1.4 1.5 1 2.4-.1.2-.2.3-.3.4-4.3 5.6-10.6 11.8-18.5 13.9z"/><path d="m71.7 100.8-27.2-9.5c-.4-.1-.7-.6-.6-1s.6-.7 1-.6l28.3 5.6c1.5.3 2.6 1.7 2.3 3.3-.3 1.5-1.7 2.6-3.3 2.3h-.1z"/><path d="m90.6 88.2 2-33.4c0-.4.4-.8.8-.8s.8.4.8.8l2 33.4c.1 1.6-1.1 2.9-2.7 3s-2.9-1.1-3-2.7c.1-.1.1-.2.1-.3z"/><path d="m79.7 121.2-9.7 6.7c-.4.3-.9.2-1.1-.2-.2-.3-.2-.7 0-1l6.9-9.6c1-1.2 2.8-1.4 4-.4 1.1.9 1.4 2.5.6 3.7-.2.3-.4.6-.7.8z"/><path d="m111.1 117.2 6.1 8.8c.2.4.1.9-.2 1.1s-.6.2-.9 0l-8.9-6c-1.3-1-1.5-2.8-.6-4s2.5-1.5 3.8-.7c.3.2.5.4.7.8z"/><path d="m113.7 95.4 28.3-5.6c.4-.1.9.1 1 .6s-.1.9-.6 1l-27.2 9.5c-1.5.5-3.1-.3-3.6-1.8-.5-1.4.3-3 1.7-3.5z"/><path d="m66.7 55.6-1.4-11c0-.5.3-.9.7-.9.3 0 .6.1.8.4l5.3 9.8c.8 1.4.2 3.1-1.2 3.9s-3.1.2-3.9-1.2c-.2-.3-.3-.6-.3-1z"/><path d="m115 53.9 5.3-9.8c.2-.4.7-.5 1.1-.3.3.2.4.5.4.8l-1.4 11c-.2 1.6-1.6 2.7-3.1 2.6-1.6-.2-2.7-1.6-2.6-3.1 0-.1 0-.1 0-.2 0-.4.1-.7.3-1z"/></g></svg>